<?xml version="1.0" standalone="no"?>
<!DOCTYPE svg PUBLIC "-//W3C//DTD SVG 20010904//EN"
 "http://www.w3.org/TR/2001/REC-SVG-20010904/DTD/svg10.dtd">
<svg version="1.0" xmlns="http://www.w3.org/2000/svg"
 width="933.000000pt" height="1280.000000pt" viewBox="0 0 933.000000 1280.000000"
 preserveAspectRatio="xMidYMid meet">
<g transform="translate(0.000000,1280.000000) scale(0.100000,-0.100000)"
fill="#000000" stroke="none">
<path d="M5278 12632 c-165 -255 -277 -661 -332 -1207 -13 -122 -46 -557 -46
-599 0 -6 -3 -6 -9 0 -14 13 -33 586 -26 749 17 361 76 655 196 974 21 58 37
106 35 108 -1 2 -19 -21 -39 -50 -136 -206 -209 -485 -237 -912 -5 -82 -10
-365 -10 -627 0 -598 -7 -618 -52 -143 -30 318 -33 941 -5 1153 30 237 10 209
-37 -49 -66 -368 -71 -747 -16 -1244 30 -265 26 -306 -9 -125 -63 317 -96 743
-89 1155 4 251 3 280 -8 215 -61 -381 -38 -933 65 -1545 36 -208 40 -238 31
-228 -12 13 -38 101 -74 253 -71 298 -130 645 -160 943 -8 76 -17 141 -21 145
-8 8 1 -209 16 -368 22 -244 81 -587 160 -925 61 -267 52 -282 -35 -58 -93
238 -164 508 -205 783 -36 241 -41 259 -35 145 10 -193 65 -511 138 -793 13
-51 22 -101 19 -112 -3 -10 4 -47 15 -82 37 -113 53 -228 33 -228 -4 0 -26 39
-48 88 -85 184 -154 396 -203 623 -33 158 -39 125 -9 -52 33 -194 93 -423 180
-683 85 -254 87 -264 53 -345 -12 -29 -16 -32 -30 -20 -48 40 -147 298 -174
452 -10 63 -31 145 -45 183 -15 38 -36 97 -48 132 -12 34 -27 62 -34 62 -7 0
-24 16 -39 35 -15 20 -28 34 -30 33 -1 -2 13 -47 32 -102 55 -158 77 -281 77
-436 1 -141 -8 -199 -50 -340 -28 -95 -91 -240 -104 -240 -5 0 -9 83 -9 184 0
385 -55 661 -178 901 -46 88 -155 245 -172 245 -4 0 11 -44 35 -97 85 -195
141 -403 166 -621 12 -108 9 -515 -4 -528 -13 -13 -17 2 -32 127 -74 591 -315
1030 -743 1351 -42 32 -78 55 -80 53 -3 -2 35 -46 83 -97 210 -223 372 -487
468 -765 47 -133 87 -316 93 -422 6 -100 -5 -94 -30 18 -51 226 -168 494 -293
671 -86 121 -300 337 -426 430 -103 75 -304 200 -322 200 -5 0 15 -22 45 -47
100 -86 301 -287 367 -368 94 -116 175 -244 243 -380 70 -140 234 -545 224
-554 -9 -9 -45 40 -151 204 -152 237 -292 442 -357 524 -250 318 -516 517
-860 645 -108 41 -328 99 -353 94 -9 -2 19 -18 63 -37 362 -157 661 -346 854
-540 149 -149 215 -246 404 -584 121 -217 118 -217 -70 -2 -489 558 -965 881
-1556 1054 -126 36 -229 59 -218 48 3 -3 52 -23 110 -46 335 -130 692 -344
997 -595 116 -96 622 -596 642 -634 12 -23 12 -23 -11 -11 -13 7 -79 56 -148
109 -677 525 -1375 892 -1963 1034 -176 42 -177 38 -2 -27 591 -221 1073 -500
1680 -970 138 -107 239 -197 230 -205 -2 -2 -98 56 -212 131 -751 486 -1351
779 -1871 913 -192 49 -201 41 -22 -20 524 -178 1012 -440 1662 -893 309 -215
306 -222 -25 -57 -408 205 -712 330 -1017 417 -242 70 -515 127 -680 141 -78
6 -85 9 225 -80 419 -119 751 -249 1135 -441 271 -135 374 -193 354 -200 -6
-2 -64 19 -130 48 -629 271 -1178 412 -1684 433 l-125 5 75 -14 c41 -9 127
-24 190 -35 414 -73 907 -233 1250 -405 88 -44 149 -85 127 -85 -2 0 -73 25
-157 55 -335 122 -623 195 -945 241 -109 15 -666 33 -654 20 3 -3 73 -13 155
-21 538 -56 954 -154 1267 -297 37 -17 67 -35 67 -41 0 -10 -3 -10 -175 23
-343 65 -741 74 -1070 25 -106 -16 -248 -45 -243 -50 2 -2 68 6 148 17 198 28
608 31 785 5 186 -28 375 -71 375 -86 0 -4 -71 -11 -157 -14 -339 -13 -670
-103 -951 -260 -92 -50 -252 -160 -252 -171 0 -2 57 21 128 51 226 98 636 222
792 239 72 8 60 -4 -47 -50 -222 -95 -487 -249 -593 -346 -35 -32 -18 -23 80
41 211 136 507 273 826 382 244 83 290 70 94 -28 -322 -161 -577 -347 -713
-520 -36 -46 -18 -34 68 44 95 86 292 229 432 313 166 100 466 248 512 254 34
5 35 4 16 -11 -11 -9 -71 -47 -133 -85 -220 -135 -420 -305 -533 -455 -87
-114 -71 -109 57 16 157 154 267 244 434 354 123 82 345 205 368 205 33 0 -1
-33 -116 -115 -137 -97 -372 -320 -432 -410 -28 -41 -16 -32 71 56 57 58 129
126 159 151 100 83 253 181 375 239 143 67 193 85 207 71 6 -6 -26 -33 -89
-75 -115 -77 -212 -159 -284 -242 -55 -63 -144 -193 -137 -201 3 -2 38 35 79
83 96 112 217 217 354 308 137 91 221 133 236 118 7 -7 -5 -21 -43 -48 -118
-85 -223 -205 -281 -320 -45 -92 -41 -102 14 -30 106 139 241 258 392 347 67
39 125 49 134 22 2 -5 -26 -34 -62 -62 -104 -84 -185 -209 -185 -287 0 -39 12
-30 50 37 45 78 147 181 245 247 66 44 83 51 109 45 47 -10 52 -20 24 -56 -14
-18 -39 -61 -56 -95 -18 -34 -35 -64 -40 -67 -4 -2 -6 -24 -4 -47 l4 -42 18
23 18 23 66 -39 c43 -25 69 -47 73 -62 4 -17 9 -20 18 -12 9 8 33 -5 91 -46
237 -170 443 -395 573 -626 59 -105 27 -82 -85 58 -234 294 -457 464 -718 548
-125 41 -120 30 21 -43 73 -38 174 -98 225 -132 139 -95 379 -339 332 -339 -3
0 -31 20 -62 44 -152 116 -343 221 -547 299 -49 19 -139 55 -200 80 -120 49
-188 68 -168 47 6 -7 9 -18 7 -24 -2 -6 25 -24 63 -40 137 -59 300 -145 362
-192 85 -64 218 -190 308 -293 105 -120 99 -130 -29 -47 -326 210 -785 380
-1123 416 -160 17 -159 12 10 -44 275 -92 451 -168 658 -285 133 -76 195 -120
166 -121 -8 0 -62 16 -119 35 -141 48 -308 82 -465 95 -71 6 -191 17 -265 25
-74 9 -171 17 -215 20 l-80 5 49 -14 c27 -8 52 -19 55 -24 3 -5 35 -13 71 -17
90 -10 395 -118 598 -210 79 -36 101 -55 65 -55 -60 1 -285 33 -378 54 -130
30 -248 50 -404 71 -205 27 -203 20 9 -29 206 -48 265 -66 254 -76 -5 -5 -54
-16 -109 -25 -55 -10 -156 -33 -225 -52 -69 -20 -168 -42 -220 -51 -71 -11
-89 -17 -72 -23 12 -5 22 -13 22 -18 0 -5 -30 -26 -67 -46 -73 -40 -166 -105
-160 -111 2 -2 46 14 98 36 51 22 150 59 219 83 l125 42 145 -2 c147 -2 270
-19 277 -39 2 -6 -52 -24 -129 -43 -72 -18 -173 -47 -222 -66 -50 -18 -145
-49 -211 -70 -137 -42 -269 -104 -358 -169 -65 -46 -173 -153 -164 -163 3 -2
26 9 51 26 42 30 66 38 66 25 0 -4 -46 -55 -102 -114 -57 -59 -112 -122 -122
-141 l-20 -34 42 33 c23 19 45 38 48 44 3 5 52 46 108 91 118 94 274 198 372
246 38 19 76 38 84 43 133 75 258 101 460 96 76 -2 142 -7 147 -11 13 -13 -24
-35 -81 -47 -28 -6 -118 -15 -201 -20 -178 -11 -249 -20 -238 -31 4 -4 24 -9
43 -11 19 -2 34 -7 33 -12 -1 -6 -39 -26 -86 -46 -329 -142 -561 -379 -636
-650 -11 -40 -28 -81 -37 -91 -10 -11 -13 -19 -8 -19 4 0 17 11 29 24 93 111
714 530 743 501 8 -8 -162 -169 -200 -190 -15 -8 -25 -21 -22 -28 2 -7 -17
-42 -44 -78 -70 -93 -115 -166 -172 -280 -47 -93 -98 -210 -87 -199 3 3 36 48
72 100 134 189 279 348 426 466 65 53 78 59 147 71 43 7 165 16 272 19 303 10
540 -17 847 -96 227 -59 555 -182 536 -201 -5 -5 -69 3 -143 16 -597 111
-1194 111 -1609 0 -85 -23 -246 -84 -239 -90 2 -2 62 12 134 30 277 70 451 90
784 89 274 0 442 -14 685 -54 149 -25 215 -40 215 -49 0 -4 -156 -7 -347 -7
-452 0 -692 -23 -941 -89 -242 -64 -430 -184 -504 -322 -51 -95 -46 -103 23
-37 96 92 157 136 266 191 242 124 510 172 893 159 176 -5 327 -17 388 -31 37
-9 16 -23 -46 -30 -762 -85 -1220 -226 -1414 -432 -46 -50 -94 -130 -84 -140
3 -4 28 15 55 40 190 178 521 294 986 347 183 21 285 25 285 11 0 -4 -48 -18
-107 -30 -530 -109 -905 -268 -1083 -458 -70 -75 -106 -142 -121 -232 -17 -92
-4 -108 31 -42 145 265 508 473 1079 616 139 35 169 29 66 -13 -44 -18 -129
-54 -190 -80 -433 -184 -729 -416 -845 -663 -29 -63 -74 -218 -66 -227 3 -2
17 20 32 50 67 133 183 279 311 391 160 141 460 320 706 422 100 41 147 44 82
5 -494 -299 -814 -618 -936 -934 -42 -108 -71 -246 -67 -319 l3 -60 34 84
c163 403 399 715 735 972 108 82 250 170 254 158 2 -6 -28 -46 -67 -88 -310
-343 -464 -652 -536 -1073 -9 -54 8 -25 50 85 101 267 254 531 407 701 83 92
146 150 155 141 3 -4 -17 -58 -45 -121 -92 -205 -130 -377 -139 -626 -7 -180
5 -436 18 -380 4 19 18 107 29 195 30 223 80 458 134 635 21 70 40 58 49 -30
22 -217 89 -616 107 -634 6 -6 7 5 5 25 -11 78 -25 508 -25 747 l0 257 30 53
c48 82 49 81 70 -118 18 -165 91 -500 109 -500 3 0 4 68 2 152 -4 168 13 537
33 695 10 84 16 107 36 128 39 42 47 33 54 -62 20 -264 49 -456 97 -648 17
-65 33 -125 37 -131 4 -7 7 143 8 334 0 304 13 577 30 665 4 19 17 33 44 47
58 30 66 27 83 -37 44 -159 116 -542 132 -708 17 -168 32 -78 41 250 6 212 -5
499 -21 555 -8 26 11 42 57 47 l45 5 27 -70 c57 -148 112 -348 194 -697 l9
-40 8 70 c10 90 -1 389 -20 530 -8 61 -18 134 -22 164 l-6 54 52 -6 c29 -4 59
-11 66 -17 22 -18 81 -284 110 -496 9 -66 18 -120 20 -122 13 -14 45 284 45
425 0 61 4 115 10 118 25 16 212 -116 325 -229 130 -130 283 -337 413 -559 89
-151 110 -199 110 -250 0 -30 12 -74 31 -122 17 -40 31 -87 31 -104 0 -17 9
-54 21 -82 14 -36 18 -64 14 -88 -3 -22 0 -53 9 -78 11 -33 14 -71 10 -162 -5
-112 -3 -123 21 -182 15 -35 27 -82 27 -104 0 -22 9 -62 20 -90 13 -34 18 -63
15 -90 -3 -23 1 -65 10 -98 13 -45 14 -65 6 -90 -6 -18 -11 -70 -12 -116 0
-68 5 -95 25 -144 16 -38 24 -72 21 -91 -2 -17 4 -52 14 -79 12 -30 18 -70 18
-110 -1 -34 2 -85 6 -113 5 -35 3 -59 -5 -74 -7 -13 -14 -59 -16 -102 -2 -64
2 -91 22 -144 13 -36 24 -83 23 -107 -1 -23 6 -64 16 -90 15 -42 16 -53 5 -88
-10 -30 -11 -45 -2 -64 17 -36 15 -101 -3 -129 -9 -13 -15 -41 -14 -62 1 -22
-2 -56 -6 -76 -6 -29 -2 -50 16 -90 14 -33 24 -75 25 -113 1 -33 9 -80 18
-104 16 -42 16 -48 1 -81 -12 -28 -14 -42 -6 -64 17 -43 13 -107 -6 -129 -11
-11 -19 -38 -20 -66 -1 -25 -5 -62 -8 -82 -5 -26 0 -51 20 -98 20 -48 25 -73
20 -101 -4 -25 0 -56 14 -96 18 -54 18 -61 4 -85 -12 -20 -14 -37 -7 -75 11
-65 6 -105 -16 -129 -10 -11 -20 -40 -23 -65 -3 -25 -9 -59 -12 -77 -5 -23 0
-50 20 -99 23 -57 26 -73 17 -102 -9 -27 -7 -41 9 -75 23 -52 24 -80 3 -113
-14 -21 -15 -31 -5 -63 18 -60 14 -92 -16 -123 -18 -19 -27 -39 -27 -65 -1
-21 -7 -56 -15 -79 -12 -38 -11 -45 12 -95 31 -66 32 -74 22 -122 -5 -25 -3
-46 4 -60 27 -52 30 -85 10 -111 -35 -45 -24 -79 38 -114 26 -14 75 -16 88 -3
28 25 77 31 128 14 59 -19 116 -9 179 33 30 19 51 24 100 24 109 1 192 56 223
149 9 28 29 66 46 87 16 20 29 43 29 50 0 16 -25 41 -50 49 -25 8 -25 18 1 71
16 34 18 47 9 63 -6 11 -8 38 -4 60 6 35 3 41 -25 62 -38 28 -39 51 -5 118 24
45 25 54 14 81 -7 17 -21 35 -31 41 -32 17 -17 93 25 128 9 8 16 27 16 43 0
22 -7 33 -30 46 -34 19 -37 35 -14 81 13 26 14 38 5 58 -6 14 -9 40 -5 58 5
28 1 38 -25 66 -36 37 -38 56 -11 109 28 54 25 85 -10 122 -16 17 -30 37 -30
43 0 7 13 39 30 70 16 31 30 62 30 67 0 6 -16 25 -35 43 l-35 32 16 38 c12 31
14 47 6 75 -6 19 -8 47 -5 62 4 20 -1 33 -20 50 -34 32 -40 60 -22 103 22 55
19 99 -10 133 -30 36 -31 65 -5 115 11 20 20 48 20 61 0 23 -5 31 -45 65 -11
8 -14 19 -8 30 4 9 7 54 5 101 -2 75 -5 87 -29 112 -23 24 -25 32 -19 75 19
124 19 118 -8 150 -30 35 -33 68 -11 120 23 55 19 85 -15 115 -27 24 -29 29
-19 57 6 18 8 46 5 64 -4 18 -8 49 -10 70 -2 22 -14 49 -27 63 -24 26 -27 53
-14 137 7 41 4 52 -19 85 -30 43 -33 77 -11 129 20 48 19 56 -12 94 -23 27
-28 43 -29 93 -3 106 -11 147 -34 171 -22 24 -25 42 -19 147 2 38 -3 55 -26
88 -28 40 -28 41 -15 98 17 70 14 90 -13 120 -17 18 -22 37 -23 80 -2 83 -20
162 -44 187 -17 18 -20 33 -18 101 2 72 0 83 -27 122 -28 43 -28 44 -16 107
13 65 7 94 -25 120 -7 6 -15 50 -18 105 -6 88 -4 106 28 232 129 504 387 840
804 1048 356 177 773 234 1096 150 100 -26 182 -58 201 -76 12 -12 15 -40 14
-127 0 -62 -4 -139 -8 -172 -5 -33 -7 -62 -5 -64 7 -8 59 117 84 204 16 55 32
91 41 93 15 3 140 -76 199 -126 l34 -29 -1 -109 c-1 -60 -5 -136 -8 -169 l-6
-60 18 30 c9 17 31 70 48 119 17 49 36 91 41 93 6 2 45 -32 87 -77 59 -61 77
-86 77 -107 -1 -29 -22 -156 -35 -207 -12 -45 9 -25 56 54 23 39 47 70 54 70
16 0 54 -60 135 -214 71 -136 72 -150 24 -271 -15 -36 -24 -68 -22 -71 3 -2
25 23 49 56 24 33 48 59 54 57 5 -2 50 -81 99 -175 49 -95 91 -170 93 -168 4
3 -80 281 -116 381 -12 32 -21 68 -21 80 1 38 47 160 61 160 20 0 99 -102 231
-300 126 -190 143 -195 59 -20 -55 116 -137 251 -221 365 -56 75 -60 84 -60
135 0 41 4 55 14 55 20 0 133 -132 279 -325 66 -88 122 -162 124 -164 2 -2 5
-2 7 0 7 7 -57 148 -101 225 -65 110 -152 226 -246 329 -80 86 -88 99 -98 150
-6 32 -8 59 -5 63 11 10 50 -15 127 -82 90 -77 191 -191 301 -338 45 -60 82
-108 84 -108 16 0 -81 184 -149 285 -71 104 -242 280 -340 349 -71 51 -119
118 -98 139 14 14 225 -111 385 -229 70 -52 130 -93 133 -90 3 2 -35 46 -84
97 -188 196 -432 353 -679 439 -63 22 -101 41 -120 62 l-29 31 47 -6 c128 -17
458 -154 633 -263 102 -64 105 -66 105 -62 0 9 -144 121 -231 180 -227 152
-437 230 -712 263 -40 5 -51 12 -72 43 -41 59 -37 62 78 62 237 0 485 -52 782
-164 79 -29 68 -17 -40 47 -154 91 -373 171 -555 204 -125 22 -353 22 -478 0
-50 -10 -94 -17 -97 -17 -11 0 -36 63 -28 71 18 18 173 49 300 61 151 14 367
2 587 -32 71 -11 131 -18 133 -16 7 7 -177 64 -287 90 -186 43 -251 51 -425
51 -186 0 -274 -14 -422 -64 -70 -24 -90 -27 -130 -20 -156 29 -301 -85 -368
-289 -18 -56 -72 -129 -86 -115 -4 4 -12 43 -18 86 l-11 78 39 77 c80 158 235
339 391 458 l65 49 185 0 c102 -1 228 -7 280 -14 355 -48 709 -183 1020 -391
82 -55 88 -57 50 -15 -139 150 -399 323 -624 416 -80 33 -118 59 -87 59 25 0
239 -44 366 -76 110 -28 434 -129 514 -161 8 -3 -37 46 -100 108 -123 123
-199 174 -356 237 -234 94 -600 136 -835 97 -102 -17 -158 -15 -158 5 0 24
159 71 320 95 97 14 130 15 210 5 225 -27 487 -90 685 -163 66 -25 129 -48
140 -52 48 -16 -90 63 -195 113 -113 54 -131 75 -45 53 24 -6 50 -11 57 -11
25 1 -78 50 -167 79 -156 51 -265 61 -670 64 -201 1 -365 5 -365 8 0 9 122 63
225 99 84 30 99 32 235 34 80 0 199 -2 265 -7 139 -8 136 1 -10 32 -133 29
-130 27 -114 48 13 15 11 16 -11 9 -14 -4 -124 -11 -245 -16 -121 -5 -253 -14
-294 -20 -81 -11 -107 -3 -68 22 13 9 87 48 166 88 79 39 141 73 138 76 -11
11 -436 -169 -542 -231 -22 -12 -86 -39 -143 -60 -57 -20 -136 -52 -175 -71
-39 -18 -73 -31 -76 -29 -8 9 41 54 141 131 171 131 412 275 515 308 28 10 62
27 76 39 13 12 33 27 43 34 32 20 -50 -5 -176 -54 -63 -24 -176 -65 -250 -89
-158 -53 -326 -131 -461 -214 -54 -33 -103 -60 -109 -60 -36 0 188 215 360
345 122 92 278 195 296 195 8 0 14 4 14 9 0 5 24 23 53 40 61 36 51 40 -28 10
l-55 -21 -80 76 c-96 89 -195 153 -307 197 -46 18 -83 35 -83 39 0 28 112 7
289 -55 151 -53 278 -118 440 -227 24 -16 45 -27 47 -25 8 7 -94 94 -166 142
-98 65 -219 123 -345 166 -141 48 -149 64 -28 56 117 -8 332 -64 475 -122 99
-41 262 -124 337 -173 14 -10 22 -12 18 -5 -4 7 -49 40 -100 74 -109 73 -311
173 -457 225 -115 41 -129 49 -114 64 19 19 308 -58 519 -137 173 -66 340
-148 520 -257 55 -33 -44 52 -120 103 -176 119 -370 203 -672 291 -74 21 -95
40 -45 40 48 0 373 -69 522 -111 214 -61 385 -126 558 -213 96 -48 84 -31 -23
34 -201 121 -426 202 -753 270 -73 16 -136 31 -139 34 -16 16 18 21 125 19
297 -4 727 -75 986 -163 49 -16 91 -28 93 -26 6 5 -126 59 -222 90 -104 33
-259 69 -414 95 -69 12 -127 23 -129 26 -17 16 39 20 291 20 278 -1 418 -11
590 -41 48 -9 90 -14 93 -11 8 8 -163 67 -285 98 -305 78 -689 80 -987 4 -54
-14 -105 -25 -112 -25 -32 0 16 34 130 91 285 143 573 228 922 273 66 9 121
18 124 20 9 9 -186 -6 -323 -25 -311 -44 -673 -157 -956 -299 -44 -23 -84 -39
-87 -36 -17 17 175 166 348 271 192 117 487 254 793 370 70 26 125 50 123 52
-2 3 -60 -9 -129 -26 -450 -109 -872 -312 -1326 -638 -41 -29 -77 -50 -80 -47
-9 10 158 163 287 264 278 216 638 428 986 581 54 24 94 45 89 46 -5 2 -77
-20 -159 -48 -459 -159 -894 -404 -1334 -754 -64 -50 -128 -100 -144 -110 -29
-19 -29 -19 -18 0 12 24 171 178 307 299 291 258 640 507 1017 726 70 41 126
75 124 77 -2 2 -68 -24 -147 -57 -460 -196 -896 -492 -1357 -919 -68 -64 -135
-124 -148 -134 -78 -60 45 104 308 411 402 469 828 855 1182 1072 47 29 86 54
86 56 0 9 -80 -30 -175 -83 -209 -118 -437 -284 -690 -502 -149 -128 -550
-532 -721 -726 -194 -221 -233 -263 -234 -248 0 31 280 414 474 648 292 351
637 674 956 897 172 119 161 111 118 94 -21 -8 -86 -43 -145 -77 -514 -294
-985 -738 -1470 -1384 -194 -259 -199 -250 -36 60 306 580 587 942 970 1245
71 55 142 112 158 126 l30 24 -45 -21 c-201 -96 -456 -283 -655 -483 -290
-291 -455 -546 -699 -1080 -20 -44 -39 -76 -42 -73 -13 13 91 462 136 592 111
317 351 620 737 932 39 32 70 59 68 62 -6 6 -192 -96 -270 -149 -200 -135
-373 -308 -480 -480 -15 -25 -34 -49 -41 -53 -8 -4 -14 -16 -14 -25 0 -9 -10
-33 -22 -52 -23 -36 -45 -84 -105 -232 -20 -50 -41 -88 -49 -88 -8 0 -37 14
-65 32 -47 29 -51 33 -46 63 3 17 23 76 44 131 l39 99 44 -2 44 -2 -32 19
c-37 23 -37 21 -16 63 30 58 31 59 87 29 29 -15 56 -29 62 -31 5 -2 -12 21
-38 51 -26 30 -47 60 -47 65 0 6 33 63 74 127 41 64 72 116 68 116 -4 0 -50
-46 -103 -102 l-97 -102 -28 19 c-75 49 -148 84 -197 95 -78 18 -182 9 -239
-20 -27 -13 -51 -21 -54 -17 -11 11 66 118 130 182 98 97 248 163 376 166 38
1 41 2 20 9 -42 13 -142 11 -203 -5 -120 -31 -238 -111 -337 -229 -34 -42 -67
-76 -72 -76 -12 0 0 43 39 134 67 158 173 313 303 447 100 103 110 103 110 0
0 -123 21 -161 88 -161 44 0 46 23 6 97 -41 77 -39 43 -34 568 1 176 0 318 -3
315 -6 -6 -36 -326 -43 -455 -2 -49 -7 -118 -10 -152 l-6 -62 -82 -55 c-154
-103 -293 -280 -417 -533 -33 -68 -64 -123 -69 -123 -25 0 56 222 155 425 98
202 208 367 328 492 23 24 38 45 35 48 -9 10 -133 -92 -202 -166 -131 -142
-274 -389 -391 -679 -79 -194 -86 -162 -16 64 110 349 265 699 406 917 70 109
70 118 -2 44 -172 -177 -334 -498 -493 -977 -45 -138 -70 -194 -70 -158 0 23
64 335 106 519 118 511 230 850 370 1123 57 110 53 117 -11 19 -173 -269 -337
-745 -515 -1501 -34 -145 -57 -195 -45 -100 14 117 57 371 96 564 96 480 223
895 356 1161 52 102 34 97 -32 -9 -184 -296 -340 -800 -474 -1530 -22 -120
-42 -221 -46 -224 -18 -19 13 408 56 742 52 415 124 721 234 996 30 74 53 135
52 136 -1 2 -19 -23 -39 -54z m587 -2012 c3 -5 -7 -29 -24 -53 l-30 -44 -138
-6 c-107 -4 -165 -12 -258 -36 -135 -35 -135 -35 -135 -21 0 34 189 130 304
155 72 16 272 19 281 5z m163 -26 c34 -9 52 -20 52 -30 0 -24 -50 -84 -71 -84
-21 0 -130 27 -137 35 -6 6 12 48 35 83 16 26 17 26 121 -4z m-273 -143 c3 -6
-14 -48 -37 -95 -48 -97 -33 -91 -184 -72 -60 7 -132 9 -180 5 -43 -4 -97 -8
-118 -10 -156 -14 170 128 379 165 98 17 132 19 140 7z m230 -12 c6 -7 3 -21
-9 -42 -10 -18 -37 -67 -59 -110 -37 -73 -42 -78 -66 -74 -55 11 -81 26 -81
47 0 27 60 183 74 193 14 10 128 -2 141 -14z m-607 -240 c2 -9 -3 -23 -11 -31
-15 -14 -62 -12 -196 8 -79 12 40 44 154 40 37 -1 51 -5 53 -17z m248 4 c17
-6 15 -32 -5 -85 -13 -34 -23 -34 -126 0 -66 22 -81 31 -83 50 -7 46 14 55
110 48 49 -4 95 -9 104 -13z m200 -43 c14 -6 24 -16 21 -23 -2 -6 -12 -37 -22
-67 -10 -30 -23 -58 -28 -62 -6 -3 -26 1 -45 10 -33 16 -34 18 -29 62 3 25 10
58 16 74 12 30 22 30 87 6z m242 -85 c28 -13 52 -29 52 -35 0 -28 -56 -193
-67 -197 -13 -5 -89 44 -97 63 -4 11 17 136 29 175 8 25 19 24 83 -6z m-763 6
c26 -6 30 -11 28 -35 -1 -16 -6 -33 -10 -37 -4 -4 -60 6 -123 22 -63 16 -123
29 -132 29 -18 0 -23 11 -11 23 8 9 208 7 248 -2z m234 -46 l53 -16 -6 -41
c-4 -22 -11 -49 -17 -59 -9 -18 -12 -17 -67 7 -31 14 -67 30 -79 35 -18 7 -23
16 -23 47 0 21 3 42 8 46 9 9 59 2 131 -19z m235 -86 c11 -10 -8 -127 -23
-142 -7 -7 -19 -4 -37 8 -25 16 -26 21 -21 75 3 32 8 64 12 70 8 12 53 5 69
-11z m-471 -26 c9 -6 9 -100 -1 -107 -4 -2 -50 8 -102 23 -77 22 -96 31 -98
47 -4 25 14 41 53 47 31 5 135 -2 148 -10z m-243 -28 c0 -21 -28 -31 -43 -16
-9 9 -8 14 3 21 22 14 40 12 40 -5z m426 -11 c74 -25 76 -29 68 -117 -5 -55
-11 -77 -20 -77 -26 0 -116 63 -125 87 -5 13 -9 47 -9 74 0 57 6 59 86 33z
m515 -44 c22 -12 42 -26 45 -33 2 -7 -7 -50 -21 -97 -15 -47 -31 -103 -36
-125 -6 -22 -21 -76 -35 -120 -49 -161 -59 -144 -40 71 9 93 18 200 22 239 5
67 10 85 20 85 3 0 23 -9 45 -20z m-268 -68 c14 -15 15 -33 9 -117 -6 -91 -9
-100 -27 -100 -24 0 -32 31 -34 132 -2 102 14 127 52 85z m-693 -6 c0 -18 -15
-23 -52 -18 -45 7 -35 32 12 32 28 0 40 -4 40 -14z m215 -14 l50 -17 3 -52 c2
-29 -1 -53 -5 -53 -18 0 -195 94 -200 107 -3 7 -2 20 1 29 5 13 15 15 54 9 26
-4 70 -14 97 -23z m-855 -164 l52 -153 -31 -60 c-44 -87 -148 -245 -161 -245
-15 0 -13 17 19 210 17 96 33 216 36 265 7 106 12 135 24 135 5 0 32 -69 61
-152z m1093 71 c23 -12 45 -27 49 -33 4 -6 8 -50 8 -98 0 -101 -5 -105 -64
-53 -32 28 -41 45 -52 97 -25 117 -18 126 59 87z m-461 -42 c4 -7 8 -24 8 -39
0 -31 -18 -36 -64 -18 -20 7 -26 17 -26 39 0 16 6 32 13 35 17 7 60 -3 69 -17z
m204 -38 c83 -35 86 -39 104 -139 6 -36 13 -73 16 -82 9 -30 -16 -20 -75 30
-31 27 -75 61 -98 77 -43 27 -63 67 -63 123 0 31 25 29 116 -9z m491 -61 c11
-13 27 -248 18 -248 -16 0 -62 230 -50 250 8 14 21 12 32 -2z m-680 -85 c22
-20 58 -142 46 -154 -8 -7 -117 68 -139 96 -6 8 -9 28 -6 45 4 27 8 30 42 30
22 0 46 -7 57 -17z m482 -20 c25 -24 31 -41 45 -130 18 -118 20 -153 6 -153
-5 0 -16 12 -24 28 -17 34 -86 247 -86 267 0 23 27 18 59 -12z m-238 -90 l84
-58 37 -110 c73 -220 33 -228 -107 -20 -59 89 -127 223 -119 237 9 14 17 10
105 -49z m1686 -28 c55 -19 134 -50 175 -71 99 -49 238 -142 238 -159 0 -7
-17 -19 -37 -25 -48 -15 -201 -96 -318 -169 -151 -93 -322 -228 -467 -369 -98
-95 -138 -129 -138 -115 0 49 156 326 242 430 66 79 302 273 333 273 8 0 36
-19 62 -42 40 -38 45 -40 38 -18 -28 90 -103 159 -252 230 -46 22 -83 44 -83
48 0 16 45 31 75 26 17 -3 76 -21 132 -39z m-3936 -5 c26 -14 24 -22 -15 -77
-18 -27 -43 -67 -55 -90 -13 -27 -28 -43 -39 -42 -33 1 -116 34 -120 47 -2 8
32 49 75 93 82 82 108 93 154 69z m3746 -70 c88 -34 163 -77 163 -93 0 -17
-160 -121 -169 -111 -25 30 -61 84 -61 91 0 4 -27 30 -60 56 -33 27 -60 55
-60 61 0 20 42 36 80 30 19 -3 67 -18 107 -34z m-1718 -18 l74 -38 54 -119
c29 -65 53 -120 53 -122 0 -15 -34 9 -103 72 -45 42 -114 97 -152 124 -73 49
-92 84 -64 117 17 20 46 13 138 -34z m-1752 -44 c61 -34 167 -100 235 -147
l123 -87 49 -94 c59 -114 120 -280 108 -292 -5 -5 -33 21 -67 62 -64 78 -222
230 -239 230 -5 0 8 -19 30 -42 105 -110 238 -297 308 -433 39 -77 60 -161 43
-172 -6 -4 -13 -1 -15 5 -10 32 -253 387 -311 456 -123 147 -282 267 -473 359
-67 33 -108 58 -108 67 0 33 143 150 184 150 12 0 71 -28 133 -62z m3257 -26
c27 -15 51 -32 53 -38 5 -16 -84 -67 -100 -58 -30 18 -77 60 -77 68 0 16 43
56 59 56 9 0 38 -13 65 -28z m-2030 -24 c3 -13 12 -53 20 -91 9 -42 10 -69 4
-73 -11 -7 -9 -10 -42 47 -28 49 -32 73 -16 113 12 32 28 33 34 4z m89 -53
c31 -53 33 -61 12 -69 -12 -4 -21 7 -35 40 -36 83 -21 101 23 29z m977 19 c0
-8 -4 -12 -10 -9 -5 3 -10 13 -10 21 0 8 5 12 10 9 6 -3 10 -13 10 -21z m1114
-38 c26 -22 37 -39 33 -49 -8 -21 -106 -87 -121 -81 -13 6 -66 80 -66 93 0 16
74 71 95 71 11 -1 38 -16 59 -34z m-290 -21 c20 -8 36 -21 36 -29 0 -7 -22
-32 -49 -54 -119 -101 -239 -285 -327 -505 -47 -118 -74 -164 -74 -125 0 35
44 191 81 284 61 157 244 444 283 444 7 0 30 -7 50 -15z m-1928 -40 c21 -51
18 -64 -21 -82 -53 -25 -61 -8 -31 61 14 31 28 56 31 56 3 0 13 -16 21 -35z
m625 -22 c27 -14 49 -30 49 -35 0 -4 6 -8 13 -8 22 0 107 -81 128 -122 21 -41
20 -68 -3 -68 -19 0 -148 119 -148 136 0 8 -5 14 -12 14 -16 0 -98 81 -98 97
0 19 17 16 71 -14z m-192 -58 c23 -41 66 -111 96 -155 l55 -81 0 -92 c0 -102
-9 -129 -34 -108 -9 8 -16 28 -17 45 0 17 -4 40 -9 51 -7 16 -9 14 -9 -15 -2
-44 -13 -62 -34 -54 -22 8 -27 28 -41 158 l-12 111 -12 -66 c-7 -36 -12 -80
-12 -97 0 -36 -19 -43 -41 -15 -11 13 -13 54 -11 192 5 230 15 246 81 126z
m1636 34 c19 -17 35 -36 35 -43 0 -6 -31 -35 -69 -64 -75 -57 -251 -235 -291
-295 -27 -40 -50 -55 -50 -33 0 28 93 198 151 276 68 92 159 190 177 190 6 0
27 -14 47 -31z m-1785 -194 c0 -37 -10 -44 -30 -20 -14 17 -4 55 16 55 9 0 14
-11 14 -35z m-30 -210 c35 -63 40 -80 35 -112 -15 -89 -24 -93 -59 -25 -32 61
-32 36 -1 -72 l25 -87 -21 -82 c-26 -105 -39 -120 -66 -75 -18 31 -20 51 -19
284 1 202 4 255 16 269 13 16 15 16 32 -5 10 -12 36 -55 58 -95z m-680 10 c34
-38 68 -79 75 -90 18 -26 30 -150 17 -159 -6 -3 -32 38 -60 97 -27 57 -65 129
-85 160 -67 104 -42 100 53 -8z m1148 -57 c36 -46 38 -56 18 -64 -25 -10 -55
15 -65 53 -18 65 1 70 47 11z m-642 10 c7 -22 -3 -228 -12 -261 -4 -13 -9 -15
-19 -7 -17 14 -33 80 -40 168 -5 68 -4 74 19 97 31 31 43 31 52 3z m1294 -10
c0 -7 -15 -67 -34 -133 -19 -66 -37 -132 -40 -147 -9 -40 -23 -34 -36 13 -16
60 -3 119 46 204 41 70 64 92 64 63z m1619 -22 c-11 -10 -270 -136 -280 -136
-21 0 22 39 75 70 73 41 235 94 205 66z m-2575 -156 c52 -55 54 -68 28 -155
-21 -69 -39 -79 -66 -34 -21 35 -37 239 -19 239 6 0 31 -22 57 -50z m-585
-194 c14 -74 14 -123 2 -110 -9 8 -31 144 -31 182 1 32 18 -10 29 -72z m4081
24 c136 -28 285 -81 420 -151 194 -101 220 -142 43 -66 -202 86 -386 152 -549
197 -43 12 -83 26 -88 31 -17 16 71 10 174 -11z m-3275 -30 c4 -6 4 -18 1 -27
-5 -12 -9 -13 -21 -3 -8 7 -15 19 -15 26 0 16 26 19 35 4z m-294 -72 c13 -69
11 -134 -6 -148 -12 -10 -15 -8 -19 12 -28 123 -34 153 -30 165 15 49 14 48
31 31 8 -9 19 -36 24 -60z m212 -3 c42 -85 44 -104 19 -135 l-18 -23 -36 44
c-54 68 -57 77 -40 137 8 28 20 52 26 52 6 0 28 -34 49 -75z m-386 -89 c-7
-51 -24 -67 -43 -42 -17 23 -18 64 -3 103 l11 28 20 -25 c15 -19 19 -34 15
-64z m-2253 43 c39 -13 72 -30 74 -38 4 -11 -2 -12 -24 -6 -16 4 -89 20 -162
35 -73 15 -136 31 -140 35 -17 18 186 -4 252 -26z m2824 -52 c33 -66 39 -87
22 -87 -17 0 -70 92 -70 122 0 43 12 34 48 -35z m1962 -9 c0 -7 -28 -35 -61
-63 -64 -53 -138 -133 -208 -227 -24 -32 -47 -58 -51 -58 -4 0 -24 20 -45 45
-27 33 -59 56 -122 86 -69 34 -82 44 -71 54 22 22 254 105 392 140 145 38 166
41 166 23z m-2690 -22 c0 -14 -21 -58 -26 -54 -8 8 7 58 17 58 5 0 9 -2 9 -4z
m464 -47 c10 -17 16 -40 12 -52 -3 -11 0 -27 5 -33 14 -17 2 -54 -18 -54 -34
0 -73 59 -40 61 6 0 2 5 -10 11 -27 13 -28 18 -9 63 18 43 36 44 60 4z m201
-38 c45 -70 53 -95 35 -106 -11 -7 -106 89 -115 117 -7 19 11 58 26 58 5 0 30
-31 54 -69z m-417 27 c20 -20 15 -66 -9 -73 -32 -11 -43 7 -29 49 12 39 19 43
38 24z m566 -64 c9 -24 7 -28 -9 -14 -17 14 -20 30 -6 30 5 0 12 -7 15 -16z
m-210 -100 c50 -61 54 -75 31 -94 -21 -18 -43 3 -72 68 -43 98 -27 108 41 26z
m-374 32 c0 -8 -4 -17 -9 -21 -12 -7 -24 12 -16 25 9 15 25 12 25 -4z m145
-53 c3 -21 8 -46 9 -55 2 -9 -2 -25 -9 -35 -11 -14 -18 -16 -31 -7 -34 20 -38
38 -19 87 21 57 42 61 50 10z m1475 -133 c37 -124 110 -496 110 -560 0 -23 -9
-30 -77 -60 -421 -182 -719 -502 -868 -930 -20 -58 -40 -109 -44 -113 -4 -4
-20 10 -36 33 -26 38 -27 44 -21 111 5 61 3 76 -13 103 -19 29 -19 40 -10 131
43 444 175 743 443 1010 120 118 229 205 243 191 4 -3 -4 -28 -16 -54 -27 -54
-63 -154 -58 -159 2 -2 19 24 36 57 70 130 228 310 273 310 13 0 23 -18 38
-70z m-1326 11 c55 -56 55 -75 1 -85 -30 -6 -42 -3 -60 14 -25 24 -35 67 -23
99 11 32 29 26 82 -28z m222 -17 c9 -13 14 -27 11 -30 -9 -9 -77 36 -77 50 0
34 38 23 66 -20z m-2174 -50 c160 -109 508 -386 508 -405 0 -15 -10 -11 -89
35 -255 146 -490 262 -717 351 -65 26 -121 49 -124 52 -16 15 45 23 182 23
l157 0 83 -56z m1756 39 c-5 -25 -28 -28 -28 -4 0 12 6 21 16 21 9 0 14 -7 12
-17z m1820 -90 c49 -181 63 -356 33 -386 -11 -11 -17 20 -26 143 -4 47 -15
132 -26 190 -10 58 -19 113 -19 123 0 39 19 4 38 -70z m861 48 c6 -10 7 -22 3
-26 -14 -14 -215 -105 -221 -100 -12 12 19 42 94 93 85 56 109 62 124 33z
m-4962 -25 c258 -75 555 -204 790 -344 176 -104 214 -142 103 -100 -328 123
-615 204 -876 250 -113 20 -163 23 -412 23 -155 0 -282 3 -282 7 0 10 132 76
225 113 98 40 253 84 297 84 20 1 90 -15 155 -33z m-957 19 c0 -3 -53 -44
-117 -91 -146 -108 -259 -204 -397 -335 -59 -56 -109 -99 -113 -95 -24 24 237
304 367 393 122 83 260 151 260 128z m1840 -11 c66 -15 73 -19 136 -87 72 -77
274 -341 274 -357 0 -22 -20 -5 -130 106 -63 64 -169 163 -235 222 -106 93
-141 132 -120 132 3 0 37 -7 75 -16z m1475 -9 c0 -20 -30 -43 -41 -32 -11 11
15 59 29 54 6 -2 12 -12 12 -22z m2904 -94 c13 -24 5 -31 -36 -31 -25 0 -33 4
-33 18 0 10 3 22 7 25 13 14 53 6 62 -12z m-2615 -102 c84 -58 116 -87 116
-101 0 -19 -5 -20 -53 -15 -97 10 -240 68 -254 103 -6 17 44 94 62 94 7 0 65
-36 129 -81z m-1258 46 c24 -15 133 -249 142 -304 5 -33 4 -35 -12 -22 -10 8
-33 44 -51 80 -18 36 -60 109 -93 161 -33 52 -58 99 -55 103 6 9 39 0 69 -18z
m984 5 c0 -5 -7 -10 -16 -10 -8 0 -12 5 -9 10 3 6 10 10 16 10 5 0 9 -4 9 -10z
m2450 -40 c0 -5 -7 -10 -16 -10 -8 0 -12 5 -9 10 3 6 10 10 16 10 5 0 9 -4 9
-10z m-2560 -36 c0 -16 -59 -46 -74 -37 -5 4 5 19 23 35 32 29 51 30 51 2z
m3000 6 c0 -12 -28 -25 -36 -17 -9 9 6 27 22 27 8 0 14 -5 14 -10z m-3662 -34
c92 -47 90 -41 94 -213 2 -84 -1 -154 -6 -155 -5 -2 -23 38 -41 87 -17 50 -50
135 -73 191 -23 55 -42 103 -42 107 0 12 20 7 68 -17z m3462 4 c0 -5 -4 -10
-10 -10 -5 0 -10 5 -10 10 0 6 5 10 10 10 6 0 10 -4 10 -10z m-2598 -225 c83
-337 75 -354 -26 -56 -76 223 -81 257 -36 249 11 -2 28 -55 62 -193z m166 73
l124 -61 -6 -166 c-4 -91 -9 -192 -12 -224 -6 -54 -8 -58 -28 -52 -11 4 -36 9
-54 12 -22 4 -37 13 -42 27 -12 27 -120 488 -120 510 0 9 3 16 7 16 4 0 63
-28 131 -62z m-264 -96 c102 -312 107 -342 57 -342 -10 0 -26 -7 -37 -15 -10
-8 -24 -15 -29 -15 -6 0 -28 33 -50 73 -21 39 -65 117 -97 171 -32 55 -58 105
-56 113 2 7 37 42 78 77 52 44 79 61 87 54 6 -5 28 -58 47 -116z m-507 70 l43
-37 -41 -117 c-23 -65 -45 -118 -49 -118 -13 0 -20 60 -20 180 0 108 3 131 19
130 3 0 25 -17 48 -38z m3981 -23 c51 -18 90 -99 40 -83 -63 19 -108 60 -93
84 8 13 15 12 53 -1z m-2974 -45 c9 -3 16 -14 16 -24 0 -23 -69 -373 -75 -378
-3 -3 -7 2 -11 11 -6 17 14 376 22 389 6 10 26 10 48 2z m-794 -135 c86 -99
159 -200 225 -310 69 -113 75 -127 85 -209 5 -36 23 -95 39 -132 17 -37 31
-81 31 -97 0 -15 11 -54 25 -85 14 -31 25 -63 25 -71 0 -38 -33 -6 -102 98
-104 156 -222 301 -360 444 -78 80 -118 129 -118 143 0 35 40 220 55 257 8 18
18 33 24 33 6 0 38 -32 71 -71z m3845 -40 c30 -11 60 -29 65 -39 11 -21 14
-70 4 -70 -11 0 -144 101 -144 109 0 8 11 21 16 21 2 0 28 -9 59 -21z m-7
-188 c20 -11 56 -33 80 -50 37 -28 42 -36 42 -71 0 -22 -3 -40 -7 -40 -5 0
-46 35 -92 78 -53 49 -82 83 -77 90 9 16 10 15 54 -7z m110 -331 c17 -16 20
-27 15 -53 -7 -38 -9 -41 -22 -33 -9 6 -51 90 -51 102 0 12 40 1 58 -16z"/>
<path d="M6050 6083 c0 -10 -5 -59 -10 -109 -34 -321 -50 -756 -30 -808 13
-35 54 -60 85 -52 33 8 32 29 -7 112 l-33 69 2 403 c1 221 0 402 -3 402 -2 0
-4 -8 -4 -17z"/>
<path d="M6061 4727 c-13 -6 -34 -25 -45 -40 -20 -27 -21 -40 -20 -250 0 -122
6 -294 13 -382 16 -215 51 -588 55 -600 2 -5 3 231 2 526 l-1 537 43 82 c51
99 52 114 11 129 -18 6 -32 11 -33 11 -1 0 -12 -6 -25 -13z"/>
</g>
</svg>
